HIERARCHY
ROOT hip
{
  OFFSET 0 0 0
  CHANNELS 6 Xposition Yposition Zposition Zrotation Yrotation Xrotation
  JOINT abdomen
  {
    OFFSET 0 20.6881 -0.73152
    CHANNELS 3 Zrotation Xrotation Yrotation
    JOINT chest
    {
      OFFSET 0 11.7043 -0.48768
      CHANNELS 3 Zrotation Xrotation Yrotation
      JOINT neck
      {
        OFFSET 0 22.1894 -2.19456
        CHANNELS 3 Zrotation Xrotation Yrotation
        JOINT head
        {
          OFFSET -0.24384 7.07133 1.2192
          CHANNELS 3 Zrotation Xrotation Yrotation
          JOINT leftEye
          {
            OFFSET 4.14528 8.04674 8.04672
            CHANNELS 3 Zrotation Xrotation Yrotation
            End Site
            {
              OFFSET 1 0 0
            }
          }
          JOINT rightEye
          {
            OFFSET -3.6576 8.04674 8.04672
            CHANNELS 3 Zrotation Xrotation Yrotation
            End Site
            {
              OFFSET 1 0 0
            }
          }
        }
      }
      JOINT rCollar
      {
        OFFSET -2.68224 19.2634 -4.8768
        CHANNELS 3 Zrotation Xrotation Yrotation
        JOINT rShldr
        {
          OFFSET -8.77824 -1.95073 1.46304
          CHANNELS 3 Zrotation Xrotation Yrotation
          JOINT rForeArm
          {
            OFFSET -28.1742 -1.7115 0.48768
            CHANNELS 3 Zrotation Xrotation Yrotation
            JOINT rHand
            {
              OFFSET -22.5879 0.773209 7.07136
              CHANNELS 3 Zrotation Xrotation Yrotation
              JOINT rThumb1
              {
                OFFSET -1.2192 -0.487915 3.41376
                CHANNELS 3 Zrotation Xrotation Yrotation
                JOINT rThumb2
                {
                  OFFSET -3.37035 -0.52449 3.41376
                  CHANNELS 3 Zrotation Xrotation Yrotation
                  End Site
                  {
                    OFFSET -1.78271 -1.18214 1.43049
                  }
                }
              }
              JOINT rIndex1
              {
                OFFSET -7.75947 0.938293 5.60832
                CHANNELS 3 Zrotation Xrotation Yrotation
                JOINT rIndex2
                {
                  OFFSET -2.54057 -0.884171 1.56538
                  CHANNELS 3 Zrotation Xrotation Yrotation
                  End Site
                  {
                    OFFSET -1.62519 -0.234802 1.16502
                  }
                }
              }
              JOINT rMid1
              {
                OFFSET -8.24714 1.18213 3.41376
                CHANNELS 3 Zrotation Xrotation Yrotation
                JOINT rMid2
                {
                  OFFSET -3.10165 -0.590103 1.0647
                  CHANNELS 3 Zrotation Xrotation Yrotation
                  End Site
                  {
                    OFFSET -2.48547 -0.328903 0.83742
                  }
                }
              }
              JOINT rRing1
              {
                OFFSET -8.82822 0.546677 1.51678
                CHANNELS 3 Zrotation Xrotation Yrotation
                JOINT rRing2
                {
                  OFFSET -2.60934 -0.819778 -0.0198488
                  CHANNELS 3 Zrotation Xrotation Yrotation
                  End Site
                  {
                    OFFSET -2.33842 -0.294052 0.168128
                  }
                }
              }
              JOINT rPinky1
              {
                OFFSET -8.27202 -0.0477905 -0.4584
                CHANNELS 3 Zrotation Xrotation Yrotation
                JOINT rPinky2
                {
                  OFFSET -1.82734 -0.647385 -0.700984
                  CHANNELS 3 Zrotation Xrotation Yrotation
                  End Site
                  {
                    OFFSET -1.69225 -0.51767 -0.607171
                  }
                }
              }
            }
          }
        }
      }
      JOINT lCollar
      {
        OFFSET 2.68224 19.2634 -4.8768
        CHANNELS 3 Zrotation Xrotation Yrotation
        JOINT lShldr
        {
          OFFSET 8.77824 -1.95073 1.46304
          CHANNELS 3 Zrotation Xrotation Yrotation
          JOINT lForeArm
          {
            OFFSET 28.1742 -1.7115 0.48768
            CHANNELS 3 Zrotation Xrotation Yrotation
            JOINT lHand
            {
              OFFSET 22.5879 0.773209 7.07136
              CHANNELS 3 Zrotation Xrotation Yrotation
              JOINT lThumb1
              {
                OFFSET 1.2192 -0.487915 3.41376
                CHANNELS 3 Zrotation Xrotation Yrotation
                JOINT lThumb2
                {
                  OFFSET 3.37035 -0.52449 3.41376
                  CHANNELS 3 Zrotation Xrotation Yrotation
                  End Site
                  {
                    OFFSET 1.78271 -1.18214 1.43049
                  }
                }
              }
              JOINT lIndex1
              {
                OFFSET 7.75947 0.938293 5.60832
                CHANNELS 3 Zrotation Xrotation Yrotation
                JOINT lIndex2
                {
                  OFFSET 2.54057 -0.884171 1.56538
                  CHANNELS 3 Zrotation Xrotation Yrotation
                  End Site
                  {
                    OFFSET 1.62519 -0.234802 1.16502
                  }
                }
              }
              JOINT lMid1
              {
                OFFSET 8.24714 1.18213 3.41376
                CHANNELS 3 Zrotation Xrotation Yrotation
                JOINT lMid2
                {
                  OFFSET 3.10165 -0.590103 1.0647
                  CHANNELS 3 Zrotation Xrotation Yrotation
                  End Site
                  {
                    OFFSET 2.48547 -0.328903 0.83742
                  }
                }
              }
              JOINT lRing1
              {
                OFFSET 8.82822 0.546677 1.51678
                CHANNELS 3 Zrotation Xrotation Yrotation
                JOINT lRing2
                {
                  OFFSET 2.60934 -0.819778 -0.0198488
                  CHANNELS 3 Zrotation Xrotation Yrotation
                  End Site
                  {
                    OFFSET 2.33842 -0.294052 0.168128
                  }
                }
              }
              JOINT lPinky1
              {
                OFFSET 8.27202 -0.0477905 -0.4584
                CHANNELS 3 Zrotation Xrotation Yrotation
                JOINT lPinky2
                {
                  OFFSET 1.82734 -0.647385 -0.700984
                  CHANNELS 3 Zrotation Xrotation Yrotation
                  End Site
                  {
                    OFFSET 1.69225 -0.51767 -0.607171
                  }
                }
              }
            }
          }
        }
      }
    }
  }
  JOINT rButtock
  {
    OFFSET -8.77824 4.35084 1.2192
    CHANNELS 3 Zrotation Xrotation Yrotation
    JOINT rThigh
    {
      OFFSET 0 -1.70687 -2.19456
      CHANNELS 3 Zrotation Xrotation Yrotation
      JOINT rShin
      {
        OFFSET 0 -36.8199 0.73152
        CHANNELS 3 Zrotation Xrotation Yrotation
        JOINT rFoot
        {
          OFFSET 0.73152 -45.1104 -5.12064
          CHANNELS 3 Zrotation Xrotation Yrotation
          End Site
          {
            OFFSET -1.1221 -3.69964 12.103
          }
        }
      }
    }
  }
  JOINT lButtock
  {
    OFFSET 8.77824 4.35084 1.2192
    CHANNELS 3 Zrotation Xrotation Yrotation
    JOINT lThigh
    {
      OFFSET 0 -1.70687 -2.19456
      CHANNELS 3 Zrotation Xrotation Yrotation
      JOINT lShin
      {
        OFFSET 0 -36.8199 0.73152
        CHANNELS 3 Zrotation Xrotation Yrotation
        JOINT lFoot
        {
          OFFSET -0.73152 -45.1104 -5.12064
          CHANNELS 3 Zrotation Xrotation Yrotation
          End Site
          {
            OFFSET 1.1221 -3.69964 12.103
          }
        }
      }
    }
  }
}
MOTION
Frames:	4
Frame Time:	0.00833333
21.1508 83.6966 233.767 0.4599 22.199 35.7971 0.742811 -37.1757 2.56481 -3.36101 -6.03559 0.734497 15.846 12.3431 13.776 -8.1399 3.09798 26.1972 -0.0 0.0 0.0 -0.0 0.0 0.0 -6.90286e-13 5.09902e-13 -4.58616e-13 123.101 58.71 -62.5861 -25.9386 -23.2784 56.5203 -0.888515 -25.7409 -3.88561 2.09255e-09 -1.61208e-09 -1.31691e-10 3.61213e-09 -2.83379e-09 -1.77206e-10 2.09255e-09 -1.61207e-09 -1.31693e-10 7.73091 5.47488 0.417314 2.09255e-09 -1.61207e-09 -1.31691e-10 2.90554 0.965183 0.102902 2.09255e-09 -1.61207e-09 -1.31693e-10 10.2786 0.731801 0.0259123 2.09255e-09 -1.61207e-09 -1.31693e-10 2.22167 -0.733487 -0.20892 -6.90475e-13 5.099e-13 -4.58953e-13 -148.588 77.424 93.02 25.3988 -21.9813 -54.3817 0.0567224 -6.85233 0.967534 1.12928e-09 2.87543e-09 7.68147e-10 1.94761e-09 4.98565e-09 1.34272e-09 1.12928e-09 2.87543e-09 7.68152e-10 -7.73091 5.47488 -0.417314 1.12928e-09 2.87543e-09 7.68153e-10 -2.90554 0.965183 -0.102902 1.12928e-09 2.87542e-09 7.68149e-10 -10.2786 0.731801 -0.0259123 1.12929e-09 2.87543e-09 7.68135e-10 -2.22167 -0.733487 0.20892 -2.03217e-16 0.0 -3.88251e-19 3.69169 -46.7725 13.4733 -0.0916734 22.6034 0.458324 -5.80362 -9.25056 -20.7243 2.03217e-16 0.0 3.88251e-19 -11.4157 -47.8249 -24.7099 0.0689969 20.3399 -0.231516 1.61501 -0.90033 12.8945
21.1475 83.6879 233.717 0.5184 22.3098 36.007 0.683802 -37.3361 2.48398 -3.43546 -6.07188 0.7161 15.8591 12.2705 13.7586 -8.18494 3.05238 26.1432 -0.0 0.0 0.0 -0.0 0.0 0.0 -4.27937e-13 2.4416e-13 -3.72566e-13 123.197 58.276 -62.7139 -25.9395 -23.2806 56.5241 -0.888251 -25.7374 -3.885 1.15267e-09 -1.30942e-09 2.73899e-10 1.98286e-09 -2.28987e-09 5.03209e-10 1.15267e-09 -1.30942e-09 2.73897e-10 7.73091 5.47488 0.417314 1.15267e-09 -1.30942e-09 2.73899e-10 2.90554 0.965183 0.102902 1.15268e-09 -1.30942e-09 2.73897e-10 10.2786 0.731801 0.0259123 1.15267e-09 -1.30942e-09 2.73898e-10 2.22167 -0.733487 -0.20892 -4.28064e-13 2.44154e-13 -3.72877e-13 -148.662 76.9268 93.5572 25.5935 -22.4354 -55.1317 0.0700822 -7.62736 1.07815 1.05817e-09 2.21782e-09 4.98712e-10 1.8265e-09 3.84442e-09 8.72515e-10 1.05817e-09 2.21782e-09 4.98715e-10 -7.73091 5.47488 -0.417314 1.05817e-09 2.21783e-09 4.98713e-10 -2.90554 0.965183 -0.102902 1.05817e-09 2.21781e-09 4.98712e-10 -10.2786 0.731801 -0.0259123 1.05818e-09 2.21783e-09 4.98703e-10 -2.22167 -0.733487 0.20892 -2.03217e-16 0.0 -3.88251e-19 3.59047 -47.0461 13.3567 -0.092813 22.7173 0.461638 -5.83108 -9.29397 -20.7433 2.03217e-16 0.0 3.88251e-19 -11.6121 -48.0082 -24.9821 0.0679217 20.3083 -0.229471 1.59812 -0.842528 12.8903
21.1456 83.679 233.669 0.5733 22.3767 36.2048 0.622452 -37.48 2.41763 -3.50086 -6.10234 0.702267 15.8842 12.1851 13.7387 -8.24324 3.01052 26.0809 -0.0 0.0 0.0 -0.0 0.0 0.0 -1.55645e-13 -3.59199e-14 -2.67932e-13 123.242 57.8189 -62.8361 -25.9585 -23.3286 56.598 -0.894338 -25.8209 -3.8994 1.48199e-10 -1.01369e-09 7.26512e-10 2.41138e-10 -1.75634e-09 1.26355e-09 1.48206e-10 -1.01369e-09 7.2651e-10 7.73091 5.47488 0.417314 1.48199e-10 -1.01369e-09 7.2651e-10 2.90554 0.965183 0.102902 1.48206e-10 -1.01369e-09 7.2651e-10 10.2786 0.731801 0.0259123 1.48193e-10 -1.01369e-09 7.26511e-10 2.22167 -0.733487 -0.20892 -1.55714e-13 -3.59287e-14 -2.6821e-13 -148.627 76.4146 94.0288 25.8053 -22.9467 -55.9811 0.0863789 -8.4114 1.19063 9.52251e-10 1.71654e-09 3.45586e-10 1.64417e-09 2.97242e-09 6.03287e-10 9.52246e-10 1.71654e-09 3.45589e-10 -7.73091 5.47488 -0.417314 9.52244e-10 1.71655e-09 3.45582e-10 -2.90554 0.965183 -0.102902 9.52247e-10 1.71654e-09 3.45585e-10 -10.2786 0.731801 -0.0259123 9.5226e-10 1.71656e-09 3.45581e-10 -2.22167 -0.733487 0.20892 -2.03217e-16 0.0 -3.88251e-19 3.50025 -47.3026 13.255 -0.0938815 22.8236 0.464568 -5.85233 -9.33147 -20.7501 2.03217e-16 0.0 3.88251e-19 -11.7927 -48.1788 -25.2346 0.0670472 20.2825 -0.227655 1.58367 -0.786766 12.9029
21.1459 83.6701 233.625 0.6264 22.395 36.3886 0.546806 -37.6038 2.36523 -3.54668 -6.13075 0.694383 15.9185 12.0808 13.7149 -8.30456 2.99274 26.0076 -0.0 0.0 0.0 -0.0 0.0 0.0 3.10299e-14 -2.21839e-13 -1.87504e-13 123.272 57.3816 -62.9803 -25.9842 -23.3941 56.7001 -0.902761 -25.9344 -3.91907 -4.9005e-10 -8.11019e-10 1.01247e-09 -8.65451e-10 -1.39129e-09 1.74338e-09 -4.90043e-10 -8.11022e-10 1.01247e-09 7.73091 5.47488 0.417314 -4.9005e-10 -8.11023e-10 1.01247e-09 2.90554 0.965183 0.102902 -4.90043e-10 -8.11024e-10 1.01247e-09 10.2786 0.731801 0.0259123 -4.90057e-10 -8.11026e-10 1.01247e-09 2.22167 -0.733487 -0.20892 3.0993e-14 -2.21848e-13 -1.87752e-13 -148.626 75.9066 94.5573 26.0221 -23.4917 -56.8579 0.101246 -9.03802 1.28096 7.24896e-10 1.36695e-09 3.5578e-10 1.25052e-09 2.36228e-09 6.17187e-10 7.24892e-10 1.36694e-09 3.55783e-10 -7.73091 5.47488 -0.417314 7.24888e-10 1.36695e-09 3.55774e-10 -2.90554 0.965183 -0.102902 7.24892e-10 1.36694e-09 3.55778e-10 -10.2786 0.731801 -0.0259123 7.24906e-10 1.36696e-09 3.55777e-10 -2.22167 -0.733487 0.20892 -2.03217e-16 0.0 -3.88251e-19 3.42631 -47.5459 13.1843 -0.0949066 22.9239 0.467099 -5.86682 -9.3602 -20.7466 2.03217e-16 0.0 3.88251e-19 -11.9527 -48.3413 -25.4495 0.066516 20.2648 -0.226155 1.57159 -0.734994 12.9278
